<svg width="316" height="176" viewBox="0 0 316 176" fill="none" xmlns="http://www.w3.org/2000/svg">
<path d="M214.363 112.487C238.607 112.487 258.296 132.3 258.296 156.696V158.125H170.418V156.696C170.418 132.3 190.107 112.487 214.351 112.487H214.363Z" fill="white"/>
<path d="M214.425 112.487C226.553 112.487 236.385 102.593 236.385 90.3878C236.385 78.183 226.553 68.2891 214.425 68.2891C202.297 68.2891 192.465 78.183 192.465 90.3878C192.465 102.593 202.297 112.487 214.425 112.487Z" fill="white"/>
<path d="M154.136 85.4811C154.136 100.149 142.32 112.039 127.745 112.039M154.136 85.4811C154.136 70.8134 142.32 58.9229 127.745 58.9229M154.136 85.4811H148.841M127.745 112.039C113.169 112.039 101.353 100.149 101.353 85.4811M127.745 112.039V106.71M101.353 85.4811C101.353 70.8134 113.169 58.9229 127.745 58.9229M101.353 85.4811H106.649M127.745 58.9229V64.2395M127.745 73.0095V85.4811H138.768M92.4036 32.315H104.439M68.5178 24.75H93.8231M57.7043 66.9351H69.4436M68.5424 58.7863H73.5912M178.541 95.4187V75.5187H164.283C163.431 72.3263 162.185 69.2953 160.58 66.4879L170.653 56.3516L156.679 42.2899L146.606 52.4262C143.817 50.8114 140.817 49.5567 137.632 48.6996V34.3522H117.857V48.6996C114.685 49.5567 111.673 50.8114 108.883 52.4262L98.8101 42.2899L84.8366 56.3516L94.9094 66.4879C93.3047 69.2953 92.0579 72.3138 91.2062 75.5187H76.9488V95.4187H91.2062C92.0579 98.6112 93.3047 101.642 94.9094 104.45L84.8366 114.586L98.8101 128.648L108.883 118.511C111.673 120.126 114.672 121.381 117.857 122.238V136.585H137.632V122.238C140.805 121.381 143.817 120.126 146.606 118.511L156.679 128.648L170.653 114.586L160.58 104.45C162.185 101.642 163.431 98.6236 164.283 95.4187H178.541ZM214.363 112.487C238.607 112.487 258.296 132.3 258.296 156.696V158.125H170.418V156.696C170.418 132.3 190.107 112.487 214.351 112.487H214.363ZM236.385 90.3878C236.385 102.593 226.553 112.487 214.425 112.487C202.297 112.487 192.465 102.593 192.465 90.3878C192.465 78.183 202.297 68.2891 214.425 68.2891C226.553 68.2891 236.385 78.183 236.385 90.3878Z" stroke="url(#paint0_radial_69_12)" stroke-width="4" stroke-linecap="round" stroke-linejoin="round"/>
<defs>
<radialGradient id="paint0_radial_69_12" cx="0" cy="0" r="1" gradientUnits="userSpaceOnUse" gradientTransform="translate(158 91.4375) rotate(90) scale(66.6875 100.296)">
<stop offset="0.244792" stop-color="#009EE0"/>
<stop offset="1" stop-color="#0F4DAB"/>
</radialGradient>
</defs>
</svg>
