<svg width="316" height="176" viewBox="0 0 316 176" fill="none" xmlns="http://www.w3.org/2000/svg">
<path d="M206.446 81.1573V97.4842C206.446 100.931 209.256 103.711 212.713 103.711H227.703M190.088 126.314V78.6919H205.319C208.167 78.6919 210.889 80.0252 212.903 82.39L226.753 98.7043C229.361 101.761 230.817 105.924 230.817 110.251V126.314H190.088ZM190.088 126.314H133.533M190.088 126.314V81.5598C190.088 75.0945 184.809 69.8493 178.301 69.8493H128.127L109.148 102.503L105.844 96.8175V126.314H133.533M133.533 126.314H115.745C114.846 128.088 114.289 130.062 114.289 132.188C114.289 139.433 120.201 145.295 127.481 145.295C134.761 145.295 140.673 139.421 140.673 132.188C140.673 130.062 140.116 128.088 139.217 126.314H133.533ZM181.238 148.641H169.033M178.136 158.125H145.054M204.192 52.9061H219.917M174.604 43.4219H207.686M79.687 120.327H95.0443M90.17 111.409H96.7662M198.71 126.314C197.811 128.088 197.254 130.062 197.254 132.188C197.254 139.433 203.166 145.295 210.446 145.295C217.726 145.295 223.639 139.421 223.639 132.188C223.639 130.062 223.082 128.088 222.183 126.314H198.71ZM137.559 46.1137C137.559 30.5164 124.835 17.875 109.136 17.875C93.4364 17.875 80.7251 30.5164 80.7251 46.1137C80.7251 51.7363 82.3963 56.9689 85.2576 61.3714L109.161 102.503L133.064 61.3714H133.039C135.9 56.9689 137.572 51.7363 137.572 46.1137H137.559ZM119.657 46.1137C119.657 51.8866 114.946 56.5664 109.136 56.5664C103.325 56.5664 98.6147 51.8866 98.6147 46.1137C98.6147 40.3408 103.325 35.661 109.136 35.661C114.946 35.661 119.657 40.3408 119.657 46.1137Z" stroke="url(#paint0_radial_69_7)" stroke-width="4" stroke-linecap="round" stroke-linejoin="round"/>
<defs>
<radialGradient id="paint0_radial_69_7" cx="0" cy="0" r="1" gradientUnits="userSpaceOnUse" gradientTransform="translate(175.908 88.3145) rotate(118.334) scale(80.0272 85.9842)">
<stop stop-color="#009EE0"/>
<stop offset="1" stop-color="#0F4DAB"/>
</radialGradient>
</defs>
</svg>
