<svg width="317" height="176" viewBox="0 0 317 176" fill="none" xmlns="http://www.w3.org/2000/svg">
<path d="M200.484 113.578L178.46 98.6885L212.466 85.9797L233.815 100.348M200.484 113.578L233.815 100.348M200.484 113.578V134.477M233.815 100.348L233.598 121.089L200.484 134.477M200.484 134.477L177.966 118.884V100.869M190.25 105.74L224.172 93.2246V30.6498M136.209 115.759V149.875M136.209 115.759L177.966 92.1826M136.209 115.759L75.8996 92.958M136.209 149.875L75.8152 128.019L75.8996 92.958M136.209 149.875L177.966 125.342V92.1826M75.8996 92.958L116.632 70.7388L177.966 92.1826M156.521 103.074L97.5377 82.5511M117.066 70.7388V44.7276M117.066 44.7276H212.659M117.066 44.7276L137.053 30.25L224.172 30.6498M212.659 44.7276V85.9797M212.659 44.7276L224.172 30.6498M128.289 55.8372H155.315M128.289 64.5601H158.667M170.625 53.4142H202.268V68.8368H170.625V53.4142Z" stroke="url(#paint0_radial_69_17)" stroke-width="3" stroke-linecap="round" stroke-linejoin="round"/>
<defs>
<radialGradient id="paint0_radial_69_17" cx="0" cy="0" r="1" gradientUnits="userSpaceOnUse" gradientTransform="translate(174.06 85.9797) rotate(131.913) scale(74.8897 99.3582)">
<stop stop-color="#009EE0"/>
<stop offset="1" stop-color="#0F4DAB"/>
</radialGradient>
</defs>
</svg>
